<mxfile host="app.diagrams.net" agent="Mozilla/5.0 (Macintosh; Intel Mac OS X 10_15_7) AppleWebKit/537.36 (KHTML, like Gecko) Chrome/134.0.0.0 Safari/537.36" version="26.1.1">
  <diagram name="Page-1" id="ADxcByrxnBio8AfSBTbt">
    <mxGraphModel dx="2225" dy="1471" grid="1" gridSize="10" guides="1" tooltips="1" connect="1" arrows="1" fold="1" page="1" pageScale="1" pageWidth="850" pageHeight="1100" math="0" shadow="0">
      <root>
        <mxCell id="0" />
        <mxCell id="1" parent="0" />
        <mxCell id="o9TjNFRMvBUlwkUK1iah-1" value="ATWS" style="whiteSpace=wrap;strokeWidth=2;verticalAlign=top;" vertex="1" parent="1">
          <mxGeometry x="20" y="20" width="2114" height="3147" as="geometry" />
        </mxCell>
        <mxCell id="o9TjNFRMvBUlwkUK1iah-2" value="ANTICIPATED TRANSIENT &#xa; OCCURS" style="whiteSpace=wrap;strokeWidth=2;" vertex="1" parent="o9TjNFRMvBUlwkUK1iah-1">
          <mxGeometry x="1059" y="46" width="233" height="78" as="geometry" />
        </mxCell>
        <mxCell id="o9TjNFRMvBUlwkUK1iah-3" value="TRIP-CR" style="rhombus;strokeWidth=2;whiteSpace=wrap;" vertex="1" parent="o9TjNFRMvBUlwkUK1iah-1">
          <mxGeometry x="1120" y="199" width="111" height="111" as="geometry" />
        </mxCell>
        <mxCell id="o9TjNFRMvBUlwkUK1iah-4" value="OK" style="whiteSpace=wrap;strokeWidth=2;" vertex="1" parent="o9TjNFRMvBUlwkUK1iah-1">
          <mxGeometry x="81" y="443" width="80" height="54" as="geometry" />
        </mxCell>
        <mxCell id="o9TjNFRMvBUlwkUK1iah-5" value="TRIP-RSCE" style="rhombus;strokeWidth=2;whiteSpace=wrap;" vertex="1" parent="o9TjNFRMvBUlwkUK1iah-1">
          <mxGeometry x="1188" y="407" width="127" height="127" as="geometry" />
        </mxCell>
        <mxCell id="o9TjNFRMvBUlwkUK1iah-6" value="OP-TRIP" style="rhombus;strokeWidth=2;whiteSpace=wrap;" vertex="1" parent="o9TjNFRMvBUlwkUK1iah-1">
          <mxGeometry x="903" y="631" width="112" height="112" as="geometry" />
        </mxCell>
        <mxCell id="o9TjNFRMvBUlwkUK1iah-7" value="1 MODULE &#xa; (ATWS-NO-MODULES-14)" style="whiteSpace=wrap;strokeWidth=2;" vertex="1" parent="o9TjNFRMvBUlwkUK1iah-1">
          <mxGeometry x="1774" y="648" width="232" height="78" as="geometry" />
        </mxCell>
        <mxCell id="o9TjNFRMvBUlwkUK1iah-8" value="HTS-FAILURE" style="rhombus;strokeWidth=2;whiteSpace=wrap;" vertex="1" parent="o9TjNFRMvBUlwkUK1iah-1">
          <mxGeometry x="532" y="840" width="144" height="144" as="geometry" />
        </mxCell>
        <mxCell id="o9TjNFRMvBUlwkUK1iah-9" value="1 MODULE &#xa; (ATWS-NO-MODULES-124-1)" style="whiteSpace=wrap;strokeWidth=2;" vertex="1" parent="o9TjNFRMvBUlwkUK1iah-1">
          <mxGeometry x="1197" y="873" width="255" height="78" as="geometry" />
        </mxCell>
        <mxCell id="o9TjNFRMvBUlwkUK1iah-10" value="SCS-1COOLING" style="rhombus;strokeWidth=2;whiteSpace=wrap;" vertex="1" parent="o9TjNFRMvBUlwkUK1iah-1">
          <mxGeometry x="164" y="1437" width="158" height="158" as="geometry" />
        </mxCell>
        <mxCell id="o9TjNFRMvBUlwkUK1iah-11" value="1 MODULE &#xa; (ATWS-NO-MODULES-1)" style="whiteSpace=wrap;strokeWidth=2;" vertex="1" parent="o9TjNFRMvBUlwkUK1iah-1">
          <mxGeometry x="586" y="1082" width="224" height="78" as="geometry" />
        </mxCell>
        <mxCell id="o9TjNFRMvBUlwkUK1iah-12" value="COOLING-RESTORED" style="rhombus;strokeWidth=2;whiteSpace=wrap;" vertex="1" parent="o9TjNFRMvBUlwkUK1iah-1">
          <mxGeometry x="129" y="2130" width="197" height="197" as="geometry" />
        </mxCell>
        <mxCell id="o9TjNFRMvBUlwkUK1iah-13" value="1 MODULE" style="whiteSpace=wrap;strokeWidth=2;" vertex="1" parent="o9TjNFRMvBUlwkUK1iah-1">
          <mxGeometry x="1189" y="1719" width="132" height="54" as="geometry" />
        </mxCell>
        <mxCell id="o9TjNFRMvBUlwkUK1iah-14" value="--" style="whiteSpace=wrap;strokeWidth=2;" vertex="1" parent="o9TjNFRMvBUlwkUK1iah-1">
          <mxGeometry x="160" y="2437" width="72" height="54" as="geometry" />
        </mxCell>
        <mxCell id="o9TjNFRMvBUlwkUK1iah-15" value="COOLING-RESTORED-2" style="whiteSpace=wrap;strokeWidth=2;" vertex="1" parent="o9TjNFRMvBUlwkUK1iah-1">
          <mxGeometry x="810" y="2437" width="217" height="54" as="geometry" />
        </mxCell>
        <mxCell id="o9TjNFRMvBUlwkUK1iah-16" value="NONE&#xa;(RS-AN)" style="whiteSpace=wrap;strokeWidth=2;" vertex="1" parent="o9TjNFRMvBUlwkUK1iah-1">
          <mxGeometry x="693" y="2645" width="114" height="78" as="geometry" />
        </mxCell>
        <mxCell id="o9TjNFRMvBUlwkUK1iah-17" value="COOLING-RESTORED-2" style="rhombus;strokeWidth=2;whiteSpace=wrap;" vertex="1" parent="o9TjNFRMvBUlwkUK1iah-1">
          <mxGeometry x="931" y="2578" width="211" height="211" as="geometry" />
        </mxCell>
        <mxCell id="o9TjNFRMvBUlwkUK1iah-18" value="1 MODULE" style="whiteSpace=wrap;strokeWidth=2;" vertex="1" parent="o9TjNFRMvBUlwkUK1iah-1">
          <mxGeometry x="884" y="2899" width="132" height="54" as="geometry" />
        </mxCell>
        <mxCell id="o9TjNFRMvBUlwkUK1iah-19" value="NONE &#xa; (RS-AO)" style="whiteSpace=wrap;strokeWidth=2;" vertex="1" parent="o9TjNFRMvBUlwkUK1iah-1">
          <mxGeometry x="1066" y="2887" width="115" height="78" as="geometry" />
        </mxCell>
        <mxCell id="o9TjNFRMvBUlwkUK1iah-20" value="2 MODULES &#xa; (ATWS-NO-MODULES-124-2)" style="whiteSpace=wrap;strokeWidth=2;" vertex="1" parent="o9TjNFRMvBUlwkUK1iah-1">
          <mxGeometry x="1034" y="1082" width="255" height="78" as="geometry" />
        </mxCell>
        <mxCell id="o9TjNFRMvBUlwkUK1iah-21" value="4 MODULES &#xa; (ATWS-NO-MODULES-124-4)" style="whiteSpace=wrap;strokeWidth=2;" vertex="1" parent="o9TjNFRMvBUlwkUK1iah-1">
          <mxGeometry x="1360" y="1082" width="255" height="78" as="geometry" />
        </mxCell>
        <mxCell id="o9TjNFRMvBUlwkUK1iah-22" value="NONE &#xa; (RS-AA)" style="whiteSpace=wrap;strokeWidth=2;" vertex="1" parent="o9TjNFRMvBUlwkUK1iah-1">
          <mxGeometry x="1023" y="1258" width="114" height="78" as="geometry" />
        </mxCell>
        <mxCell id="o9TjNFRMvBUlwkUK1iah-23" value="NONE &#xa; (RS-AB)" style="whiteSpace=wrap;strokeWidth=2;" vertex="1" parent="o9TjNFRMvBUlwkUK1iah-1">
          <mxGeometry x="1186" y="1258" width="113" height="78" as="geometry" />
        </mxCell>
        <mxCell id="o9TjNFRMvBUlwkUK1iah-24" value="NONE &#xa; (RS-AC)" style="whiteSpace=wrap;strokeWidth=2;" vertex="1" parent="o9TjNFRMvBUlwkUK1iah-1">
          <mxGeometry x="1349" y="1258" width="114" height="78" as="geometry" />
        </mxCell>
        <mxCell id="o9TjNFRMvBUlwkUK1iah-25" value="NONE &#xa; (RS-AD)" style="whiteSpace=wrap;strokeWidth=2;" vertex="1" parent="o9TjNFRMvBUlwkUK1iah-1">
          <mxGeometry x="1651" y="1258" width="114" height="78" as="geometry" />
        </mxCell>
        <mxCell id="o9TjNFRMvBUlwkUK1iah-26" value="4 MODULES &#xa; (ATWS-NO-MODULES-14)" style="whiteSpace=wrap;strokeWidth=2;" vertex="1" parent="o9TjNFRMvBUlwkUK1iah-1">
          <mxGeometry x="1662" y="873" width="232" height="78" as="geometry" />
        </mxCell>
        <mxCell id="o9TjNFRMvBUlwkUK1iah-27" value="NONE &#xa; (RS-AE)" style="whiteSpace=wrap;strokeWidth=2;" vertex="1" parent="o9TjNFRMvBUlwkUK1iah-1">
          <mxGeometry x="1945" y="873" width="113" height="78" as="geometry" />
        </mxCell>
        <mxCell id="o9TjNFRMvBUlwkUK1iah-28" value="OK" style="whiteSpace=wrap;strokeWidth=2;" vertex="1" parent="o9TjNFRMvBUlwkUK1iah-1">
          <mxGeometry x="1665" y="1094" width="80" height="54" as="geometry" />
        </mxCell>
        <mxCell id="o9TjNFRMvBUlwkUK1iah-29" value="NONE &#xa; (RS-AF)" style="whiteSpace=wrap;strokeWidth=2;" vertex="1" parent="o9TjNFRMvBUlwkUK1iah-1">
          <mxGeometry x="1834" y="1082" width="112" height="78" as="geometry" />
        </mxCell>
        <mxCell id="o9TjNFRMvBUlwkUK1iah-30" value="2 MODULES &#xa; (ATWS-NO-MODULES-2)" style="whiteSpace=wrap;strokeWidth=2;" vertex="1" parent="o9TjNFRMvBUlwkUK1iah-1">
          <mxGeometry x="400" y="1258" width="224" height="78" as="geometry" />
        </mxCell>
        <mxCell id="o9TjNFRMvBUlwkUK1iah-31" value="3 MODULES &#xa; (ATWS-NO-MODULES-3)" style="whiteSpace=wrap;strokeWidth=2;" vertex="1" parent="o9TjNFRMvBUlwkUK1iah-1">
          <mxGeometry x="749" y="1258" width="224" height="78" as="geometry" />
        </mxCell>
        <mxCell id="o9TjNFRMvBUlwkUK1iah-32" value="NONE&#xa;(RS-AG)" style="whiteSpace=wrap;strokeWidth=2;" vertex="1" parent="o9TjNFRMvBUlwkUK1iah-1">
          <mxGeometry x="372" y="1477" width="115" height="78" as="geometry" />
        </mxCell>
        <mxCell id="o9TjNFRMvBUlwkUK1iah-33" value="NONE&#xa;(RS-AH)" style="whiteSpace=wrap;strokeWidth=2;" vertex="1" parent="o9TjNFRMvBUlwkUK1iah-1">
          <mxGeometry x="537" y="1477" width="115" height="78" as="geometry" />
        </mxCell>
        <mxCell id="o9TjNFRMvBUlwkUK1iah-34" value="NONE&#xa;(RS-AI)" style="whiteSpace=wrap;strokeWidth=2;" vertex="1" parent="o9TjNFRMvBUlwkUK1iah-1">
          <mxGeometry x="701" y="1477" width="109" height="78" as="geometry" />
        </mxCell>
        <mxCell id="o9TjNFRMvBUlwkUK1iah-35" value="COOLING-RESTORED-1" style="rhombus;strokeWidth=2;whiteSpace=wrap;" vertex="1" parent="o9TjNFRMvBUlwkUK1iah-1">
          <mxGeometry x="1223" y="1411" width="211" height="211" as="geometry" />
        </mxCell>
        <mxCell id="o9TjNFRMvBUlwkUK1iah-36" value="NONE&#xa;(RS-AJ)" style="whiteSpace=wrap;strokeWidth=2;" vertex="1" parent="o9TjNFRMvBUlwkUK1iah-1">
          <mxGeometry x="875" y="1848" width="112" height="78" as="geometry" />
        </mxCell>
        <mxCell id="o9TjNFRMvBUlwkUK1iah-37" value="1 MODULE" style="whiteSpace=wrap;strokeWidth=2;" vertex="1" parent="o9TjNFRMvBUlwkUK1iah-1">
          <mxGeometry x="1189" y="2001" width="132" height="54" as="geometry" />
        </mxCell>
        <mxCell id="o9TjNFRMvBUlwkUK1iah-38" value="NONE &#xa; (RS-AL)" style="whiteSpace=wrap;strokeWidth=2;" vertex="1" parent="o9TjNFRMvBUlwkUK1iah-1">
          <mxGeometry x="1199" y="2425" width="112" height="78" as="geometry" />
        </mxCell>
        <mxCell id="o9TjNFRMvBUlwkUK1iah-39" value="COOLING-RESTORED-2" style="whiteSpace=wrap;strokeWidth=2;" vertex="1" parent="o9TjNFRMvBUlwkUK1iah-1">
          <mxGeometry x="1218" y="2202" width="217" height="54" as="geometry" />
        </mxCell>
        <mxCell id="o9TjNFRMvBUlwkUK1iah-40" value="NONE&#xa; (RS-AP)" style="whiteSpace=wrap;strokeWidth=2;" vertex="1" parent="o9TjNFRMvBUlwkUK1iah-1">
          <mxGeometry x="811" y="3040" width="113" height="78" as="geometry" />
        </mxCell>
        <mxCell id="o9TjNFRMvBUlwkUK1iah-41" value="--&#xa; (RS-AQ)" style="whiteSpace=wrap;strokeWidth=2;" vertex="1" parent="o9TjNFRMvBUlwkUK1iah-1">
          <mxGeometry x="979" y="3040" width="115" height="78" as="geometry" />
        </mxCell>
        <mxCell id="o9TjNFRMvBUlwkUK1iah-42" value="" style="curved=1;startArrow=none;endArrow=block;exitX=0.5;exitY=0.99;entryX=0.5;entryY=0;rounded=0;" edge="1" parent="o9TjNFRMvBUlwkUK1iah-1" source="o9TjNFRMvBUlwkUK1iah-2" target="o9TjNFRMvBUlwkUK1iah-3">
          <mxGeometry relative="1" as="geometry">
            <Array as="points" />
          </mxGeometry>
        </mxCell>
        <mxCell id="o9TjNFRMvBUlwkUK1iah-43" value="Yes" style="curved=1;startArrow=none;endArrow=block;exitX=0;exitY=0.54;entryX=0.5;entryY=0;rounded=0;" edge="1" parent="o9TjNFRMvBUlwkUK1iah-1" source="o9TjNFRMvBUlwkUK1iah-3" target="o9TjNFRMvBUlwkUK1iah-4">
          <mxGeometry relative="1" as="geometry">
            <Array as="points">
              <mxPoint x="121" y="358" />
            </Array>
          </mxGeometry>
        </mxCell>
        <mxCell id="o9TjNFRMvBUlwkUK1iah-44" value="No" style="curved=1;startArrow=none;endArrow=block;exitX=0.87;exitY=0.99;entryX=0.5;entryY=0;rounded=0;" edge="1" parent="o9TjNFRMvBUlwkUK1iah-1" source="o9TjNFRMvBUlwkUK1iah-3" target="o9TjNFRMvBUlwkUK1iah-5">
          <mxGeometry relative="1" as="geometry">
            <Array as="points">
              <mxPoint x="1252" y="358" />
            </Array>
          </mxGeometry>
        </mxCell>
        <mxCell id="o9TjNFRMvBUlwkUK1iah-45" value="Yes" style="curved=1;startArrow=none;endArrow=block;exitX=0;exitY=0.69;entryX=0.5;entryY=0;rounded=0;" edge="1" parent="o9TjNFRMvBUlwkUK1iah-1" source="o9TjNFRMvBUlwkUK1iah-5" target="o9TjNFRMvBUlwkUK1iah-6">
          <mxGeometry relative="1" as="geometry">
            <Array as="points">
              <mxPoint x="959" y="582" />
            </Array>
          </mxGeometry>
        </mxCell>
        <mxCell id="o9TjNFRMvBUlwkUK1iah-46" value="No" style="curved=1;startArrow=none;endArrow=block;exitX=1;exitY=0.59;entryX=0.5;entryY=0;rounded=0;" edge="1" parent="o9TjNFRMvBUlwkUK1iah-1" source="o9TjNFRMvBUlwkUK1iah-5" target="o9TjNFRMvBUlwkUK1iah-7">
          <mxGeometry relative="1" as="geometry">
            <Array as="points">
              <mxPoint x="1890" y="582" />
            </Array>
          </mxGeometry>
        </mxCell>
        <mxCell id="o9TjNFRMvBUlwkUK1iah-47" value="Yes" style="curved=1;startArrow=none;endArrow=block;exitX=0;exitY=0.65;entryX=0.5;entryY=0;rounded=0;" edge="1" parent="o9TjNFRMvBUlwkUK1iah-1" source="o9TjNFRMvBUlwkUK1iah-6" target="o9TjNFRMvBUlwkUK1iah-8">
          <mxGeometry relative="1" as="geometry">
            <Array as="points">
              <mxPoint x="604" y="792" />
            </Array>
          </mxGeometry>
        </mxCell>
        <mxCell id="o9TjNFRMvBUlwkUK1iah-48" value="No" style="curved=1;startArrow=none;endArrow=block;exitX=1;exitY=0.64;entryX=0.5;entryY=0.01;rounded=0;" edge="1" parent="o9TjNFRMvBUlwkUK1iah-1" source="o9TjNFRMvBUlwkUK1iah-6" target="o9TjNFRMvBUlwkUK1iah-9">
          <mxGeometry relative="1" as="geometry">
            <Array as="points">
              <mxPoint x="1325" y="792" />
            </Array>
          </mxGeometry>
        </mxCell>
        <mxCell id="o9TjNFRMvBUlwkUK1iah-49" value="Yes" style="curved=1;startArrow=none;endArrow=block;exitX=0;exitY=0.67;entryX=0.5;entryY=0;rounded=0;" edge="1" parent="o9TjNFRMvBUlwkUK1iah-1" source="o9TjNFRMvBUlwkUK1iah-8" target="o9TjNFRMvBUlwkUK1iah-10">
          <mxGeometry relative="1" as="geometry">
            <Array as="points">
              <mxPoint x="243" y="1033" />
            </Array>
          </mxGeometry>
        </mxCell>
        <mxCell id="o9TjNFRMvBUlwkUK1iah-50" value="No" style="curved=1;startArrow=none;endArrow=block;exitX=0.89;exitY=1;entryX=0.5;entryY=0;rounded=0;" edge="1" parent="o9TjNFRMvBUlwkUK1iah-1" source="o9TjNFRMvBUlwkUK1iah-8" target="o9TjNFRMvBUlwkUK1iah-11">
          <mxGeometry relative="1" as="geometry">
            <Array as="points">
              <mxPoint x="697" y="1033" />
            </Array>
          </mxGeometry>
        </mxCell>
        <mxCell id="o9TjNFRMvBUlwkUK1iah-51" value="Yes" style="curved=1;startArrow=none;endArrow=block;exitX=0.45;exitY=1;entryX=0.5;entryY=0;rounded=0;" edge="1" parent="o9TjNFRMvBUlwkUK1iah-1" source="o9TjNFRMvBUlwkUK1iah-10" target="o9TjNFRMvBUlwkUK1iah-12">
          <mxGeometry relative="1" as="geometry">
            <Array as="points">
              <mxPoint x="227" y="1671" />
            </Array>
          </mxGeometry>
        </mxCell>
        <mxCell id="o9TjNFRMvBUlwkUK1iah-52" value="No" style="curved=1;startArrow=none;endArrow=block;exitX=1;exitY=0.62;entryX=0;entryY=0.25;rounded=0;" edge="1" parent="o9TjNFRMvBUlwkUK1iah-1" source="o9TjNFRMvBUlwkUK1iah-10" target="o9TjNFRMvBUlwkUK1iah-13">
          <mxGeometry relative="1" as="geometry">
            <Array as="points">
              <mxPoint x="894" y="1671" />
            </Array>
          </mxGeometry>
        </mxCell>
        <mxCell id="o9TjNFRMvBUlwkUK1iah-53" value="Yes" style="curved=1;startArrow=none;endArrow=block;exitX=0.39;exitY=1;entryX=0.5;entryY=0;rounded=0;" edge="1" parent="o9TjNFRMvBUlwkUK1iah-1" source="o9TjNFRMvBUlwkUK1iah-12" target="o9TjNFRMvBUlwkUK1iah-14">
          <mxGeometry relative="1" as="geometry">
            <Array as="points">
              <mxPoint x="196" y="2376" />
            </Array>
          </mxGeometry>
        </mxCell>
        <mxCell id="o9TjNFRMvBUlwkUK1iah-54" value="No" style="curved=1;startArrow=none;endArrow=block;exitX=1;exitY=0.64;entryX=0.29;entryY=0;rounded=0;" edge="1" parent="o9TjNFRMvBUlwkUK1iah-1" source="o9TjNFRMvBUlwkUK1iah-12" target="o9TjNFRMvBUlwkUK1iah-15">
          <mxGeometry relative="1" as="geometry">
            <Array as="points">
              <mxPoint x="771" y="2376" />
            </Array>
          </mxGeometry>
        </mxCell>
        <mxCell id="o9TjNFRMvBUlwkUK1iah-55" value="" style="curved=1;startArrow=none;endArrow=block;exitX=0.23;exitY=1;entryX=0.5;entryY=-0.01;rounded=0;" edge="1" parent="o9TjNFRMvBUlwkUK1iah-1" source="o9TjNFRMvBUlwkUK1iah-15" target="o9TjNFRMvBUlwkUK1iah-16">
          <mxGeometry relative="1" as="geometry">
            <Array as="points">
              <mxPoint x="750" y="2540" />
            </Array>
          </mxGeometry>
        </mxCell>
        <mxCell id="o9TjNFRMvBUlwkUK1iah-56" value="" style="curved=1;startArrow=none;endArrow=block;exitX=0.69;exitY=1;entryX=0.5;entryY=0;rounded=0;" edge="1" parent="o9TjNFRMvBUlwkUK1iah-1" source="o9TjNFRMvBUlwkUK1iah-15" target="o9TjNFRMvBUlwkUK1iah-17">
          <mxGeometry relative="1" as="geometry">
            <Array as="points">
              <mxPoint x="1037" y="2540" />
            </Array>
          </mxGeometry>
        </mxCell>
        <mxCell id="o9TjNFRMvBUlwkUK1iah-57" value="Yes" style="curved=1;startArrow=none;endArrow=block;exitX=0.22;exitY=1;entryX=0.5;entryY=0;rounded=0;" edge="1" parent="o9TjNFRMvBUlwkUK1iah-1" source="o9TjNFRMvBUlwkUK1iah-17" target="o9TjNFRMvBUlwkUK1iah-18">
          <mxGeometry relative="1" as="geometry">
            <Array as="points">
              <mxPoint x="950" y="2838" />
            </Array>
          </mxGeometry>
        </mxCell>
        <mxCell id="o9TjNFRMvBUlwkUK1iah-58" value="No" style="curved=1;startArrow=none;endArrow=block;exitX=0.78;exitY=1;entryX=0.5;entryY=0;rounded=0;" edge="1" parent="o9TjNFRMvBUlwkUK1iah-1" source="o9TjNFRMvBUlwkUK1iah-17" target="o9TjNFRMvBUlwkUK1iah-19">
          <mxGeometry relative="1" as="geometry">
            <Array as="points">
              <mxPoint x="1123" y="2838" />
            </Array>
          </mxGeometry>
        </mxCell>
        <mxCell id="o9TjNFRMvBUlwkUK1iah-59" value="" style="curved=1;startArrow=none;endArrow=block;exitX=0.29;exitY=1.01;entryX=0.5;entryY=0;rounded=0;" edge="1" parent="o9TjNFRMvBUlwkUK1iah-1" source="o9TjNFRMvBUlwkUK1iah-9" target="o9TjNFRMvBUlwkUK1iah-20">
          <mxGeometry relative="1" as="geometry">
            <Array as="points">
              <mxPoint x="1161" y="1033" />
            </Array>
          </mxGeometry>
        </mxCell>
        <mxCell id="o9TjNFRMvBUlwkUK1iah-60" value="" style="curved=1;startArrow=none;endArrow=block;exitX=0.71;exitY=1.01;entryX=0.5;entryY=0;rounded=0;" edge="1" parent="o9TjNFRMvBUlwkUK1iah-1" source="o9TjNFRMvBUlwkUK1iah-9" target="o9TjNFRMvBUlwkUK1iah-21">
          <mxGeometry relative="1" as="geometry">
            <Array as="points">
              <mxPoint x="1488" y="1033" />
            </Array>
          </mxGeometry>
        </mxCell>
        <mxCell id="o9TjNFRMvBUlwkUK1iah-61" value="" style="curved=1;startArrow=none;endArrow=block;exitX=0.36;exitY=1;entryX=0.49;entryY=-0.01;rounded=0;" edge="1" parent="o9TjNFRMvBUlwkUK1iah-1" source="o9TjNFRMvBUlwkUK1iah-20" target="o9TjNFRMvBUlwkUK1iah-22">
          <mxGeometry relative="1" as="geometry">
            <Array as="points">
              <mxPoint x="1079" y="1209" />
            </Array>
          </mxGeometry>
        </mxCell>
        <mxCell id="o9TjNFRMvBUlwkUK1iah-62" value="" style="curved=1;startArrow=none;endArrow=block;exitX=0.64;exitY=1;entryX=0.5;entryY=-0.01;rounded=0;" edge="1" parent="o9TjNFRMvBUlwkUK1iah-1" source="o9TjNFRMvBUlwkUK1iah-20" target="o9TjNFRMvBUlwkUK1iah-23">
          <mxGeometry relative="1" as="geometry">
            <Array as="points">
              <mxPoint x="1243" y="1209" />
            </Array>
          </mxGeometry>
        </mxCell>
        <mxCell id="o9TjNFRMvBUlwkUK1iah-63" value="" style="curved=1;startArrow=none;endArrow=block;exitX=0.36;exitY=1;entryX=0.5;entryY=-0.01;rounded=0;" edge="1" parent="o9TjNFRMvBUlwkUK1iah-1" source="o9TjNFRMvBUlwkUK1iah-21" target="o9TjNFRMvBUlwkUK1iah-24">
          <mxGeometry relative="1" as="geometry">
            <Array as="points">
              <mxPoint x="1406" y="1209" />
            </Array>
          </mxGeometry>
        </mxCell>
        <mxCell id="o9TjNFRMvBUlwkUK1iah-64" value="" style="curved=1;startArrow=none;endArrow=block;exitX=0.88;exitY=1;entryX=0.5;entryY=-0.01;rounded=0;" edge="1" parent="o9TjNFRMvBUlwkUK1iah-1" source="o9TjNFRMvBUlwkUK1iah-21" target="o9TjNFRMvBUlwkUK1iah-25">
          <mxGeometry relative="1" as="geometry">
            <Array as="points">
              <mxPoint x="1708" y="1209" />
            </Array>
          </mxGeometry>
        </mxCell>
        <mxCell id="o9TjNFRMvBUlwkUK1iah-65" value="" style="curved=1;startArrow=none;endArrow=block;exitX=0.32;exitY=1;entryX=0.5;entryY=0.01;rounded=0;" edge="1" parent="o9TjNFRMvBUlwkUK1iah-1" source="o9TjNFRMvBUlwkUK1iah-7" target="o9TjNFRMvBUlwkUK1iah-26">
          <mxGeometry relative="1" as="geometry">
            <Array as="points">
              <mxPoint x="1779" y="792" />
            </Array>
          </mxGeometry>
        </mxCell>
        <mxCell id="o9TjNFRMvBUlwkUK1iah-66" value="" style="curved=1;startArrow=none;endArrow=block;exitX=0.68;exitY=1;entryX=0.5;entryY=0.01;rounded=0;" edge="1" parent="o9TjNFRMvBUlwkUK1iah-1" source="o9TjNFRMvBUlwkUK1iah-7" target="o9TjNFRMvBUlwkUK1iah-27">
          <mxGeometry relative="1" as="geometry">
            <Array as="points">
              <mxPoint x="2001" y="792" />
            </Array>
          </mxGeometry>
        </mxCell>
        <mxCell id="o9TjNFRMvBUlwkUK1iah-67" value="" style="curved=1;startArrow=none;endArrow=block;exitX=0.4;exitY=1.01;entryX=0.51;entryY=0;rounded=0;" edge="1" parent="o9TjNFRMvBUlwkUK1iah-1" source="o9TjNFRMvBUlwkUK1iah-26" target="o9TjNFRMvBUlwkUK1iah-28">
          <mxGeometry relative="1" as="geometry">
            <Array as="points">
              <mxPoint x="1705" y="1033" />
            </Array>
          </mxGeometry>
        </mxCell>
        <mxCell id="o9TjNFRMvBUlwkUK1iah-68" value="" style="curved=1;startArrow=none;endArrow=block;exitX=0.66;exitY=1.01;entryX=0.5;entryY=0;rounded=0;" edge="1" parent="o9TjNFRMvBUlwkUK1iah-1" source="o9TjNFRMvBUlwkUK1iah-26" target="o9TjNFRMvBUlwkUK1iah-29">
          <mxGeometry relative="1" as="geometry">
            <Array as="points">
              <mxPoint x="1890" y="1033" />
            </Array>
          </mxGeometry>
        </mxCell>
        <mxCell id="o9TjNFRMvBUlwkUK1iah-69" value="" style="curved=1;startArrow=none;endArrow=block;exitX=0.13;exitY=1;entryX=0.5;entryY=-0.01;rounded=0;" edge="1" parent="o9TjNFRMvBUlwkUK1iah-1" source="o9TjNFRMvBUlwkUK1iah-11" target="o9TjNFRMvBUlwkUK1iah-30">
          <mxGeometry relative="1" as="geometry">
            <Array as="points">
              <mxPoint x="512" y="1209" />
            </Array>
          </mxGeometry>
        </mxCell>
        <mxCell id="o9TjNFRMvBUlwkUK1iah-70" value="" style="curved=1;startArrow=none;endArrow=block;exitX=0.82;exitY=1;entryX=0.5;entryY=-0.01;rounded=0;" edge="1" parent="o9TjNFRMvBUlwkUK1iah-1" source="o9TjNFRMvBUlwkUK1iah-11" target="o9TjNFRMvBUlwkUK1iah-31">
          <mxGeometry relative="1" as="geometry">
            <Array as="points">
              <mxPoint x="861" y="1209" />
            </Array>
          </mxGeometry>
        </mxCell>
        <mxCell id="o9TjNFRMvBUlwkUK1iah-71" value="" style="curved=1;startArrow=none;endArrow=block;exitX=0.31;exitY=0.99;entryX=0.5;entryY=0;rounded=0;" edge="1" parent="o9TjNFRMvBUlwkUK1iah-1" source="o9TjNFRMvBUlwkUK1iah-30" target="o9TjNFRMvBUlwkUK1iah-32">
          <mxGeometry relative="1" as="geometry">
            <Array as="points">
              <mxPoint x="429" y="1373" />
            </Array>
          </mxGeometry>
        </mxCell>
        <mxCell id="o9TjNFRMvBUlwkUK1iah-72" value="" style="curved=1;startArrow=none;endArrow=block;exitX=0.69;exitY=0.99;entryX=0.5;entryY=0;rounded=0;" edge="1" parent="o9TjNFRMvBUlwkUK1iah-1" source="o9TjNFRMvBUlwkUK1iah-30" target="o9TjNFRMvBUlwkUK1iah-33">
          <mxGeometry relative="1" as="geometry">
            <Array as="points">
              <mxPoint x="594" y="1373" />
            </Array>
          </mxGeometry>
        </mxCell>
        <mxCell id="o9TjNFRMvBUlwkUK1iah-73" value="" style="curved=1;startArrow=none;endArrow=block;exitX=0.26;exitY=0.99;entryX=0.5;entryY=0;rounded=0;" edge="1" parent="o9TjNFRMvBUlwkUK1iah-1" source="o9TjNFRMvBUlwkUK1iah-31" target="o9TjNFRMvBUlwkUK1iah-34">
          <mxGeometry relative="1" as="geometry">
            <Array as="points">
              <mxPoint x="756" y="1373" />
            </Array>
          </mxGeometry>
        </mxCell>
        <mxCell id="o9TjNFRMvBUlwkUK1iah-74" value="" style="curved=1;startArrow=none;endArrow=block;exitX=1;exitY=0.73;entryX=0.5;entryY=0;rounded=0;" edge="1" parent="o9TjNFRMvBUlwkUK1iah-1" source="o9TjNFRMvBUlwkUK1iah-31" target="o9TjNFRMvBUlwkUK1iah-35">
          <mxGeometry relative="1" as="geometry">
            <Array as="points">
              <mxPoint x="1329" y="1373" />
            </Array>
          </mxGeometry>
        </mxCell>
        <mxCell id="o9TjNFRMvBUlwkUK1iah-75" value="" style="curved=1;startArrow=none;endArrow=block;exitX=0.5;exitY=1;entryX=0.7;entryY=0.01;rounded=0;" edge="1" parent="o9TjNFRMvBUlwkUK1iah-1" source="o9TjNFRMvBUlwkUK1iah-35" target="o9TjNFRMvBUlwkUK1iah-13">
          <mxGeometry relative="1" as="geometry">
            <Array as="points">
              <mxPoint x="1329" y="1671" />
            </Array>
          </mxGeometry>
        </mxCell>
        <mxCell id="o9TjNFRMvBUlwkUK1iah-76" value="" style="curved=1;startArrow=none;endArrow=block;exitX=0;exitY=0.75;entryX=0.49;entryY=0.01;rounded=0;" edge="1" parent="o9TjNFRMvBUlwkUK1iah-1" source="o9TjNFRMvBUlwkUK1iah-13" target="o9TjNFRMvBUlwkUK1iah-36">
          <mxGeometry relative="1" as="geometry">
            <Array as="points">
              <mxPoint x="930" y="1811" />
            </Array>
          </mxGeometry>
        </mxCell>
        <mxCell id="o9TjNFRMvBUlwkUK1iah-77" value="" style="curved=1;startArrow=none;endArrow=block;exitX=0.93;exitY=1.01;entryX=0.93;entryY=0.01;rounded=0;" edge="1" parent="o9TjNFRMvBUlwkUK1iah-1" source="o9TjNFRMvBUlwkUK1iah-13" target="o9TjNFRMvBUlwkUK1iah-37">
          <mxGeometry relative="1" as="geometry">
            <Array as="points">
              <mxPoint x="1389" y="1811" />
              <mxPoint x="1389" y="1964" />
            </Array>
          </mxGeometry>
        </mxCell>
        <mxCell id="o9TjNFRMvBUlwkUK1iah-78" value="" style="curved=1;startArrow=none;endArrow=block;exitX=0.49;exitY=1.01;entryX=0;entryY=0.26;rounded=0;" edge="1" parent="o9TjNFRMvBUlwkUK1iah-1" source="o9TjNFRMvBUlwkUK1iah-36" target="o9TjNFRMvBUlwkUK1iah-37">
          <mxGeometry relative="1" as="geometry">
            <Array as="points">
              <mxPoint x="930" y="1964" />
            </Array>
          </mxGeometry>
        </mxCell>
        <mxCell id="o9TjNFRMvBUlwkUK1iah-79" value="" style="curved=1;startArrow=none;endArrow=block;exitX=0;exitY=0.76;entryX=0;entryY=0.3;rounded=0;" edge="1" parent="o9TjNFRMvBUlwkUK1iah-1" source="o9TjNFRMvBUlwkUK1iah-37" target="o9TjNFRMvBUlwkUK1iah-38">
          <mxGeometry relative="1" as="geometry">
            <Array as="points">
              <mxPoint x="945" y="2093" />
              <mxPoint x="945" y="2376" />
            </Array>
          </mxGeometry>
        </mxCell>
        <mxCell id="o9TjNFRMvBUlwkUK1iah-80" value="" style="curved=1;startArrow=none;endArrow=block;exitX=0.73;exitY=1.01;entryX=0.5;entryY=0;rounded=0;" edge="1" parent="o9TjNFRMvBUlwkUK1iah-1" source="o9TjNFRMvBUlwkUK1iah-37" target="o9TjNFRMvBUlwkUK1iah-39">
          <mxGeometry relative="1" as="geometry">
            <Array as="points">
              <mxPoint x="1327" y="2093" />
            </Array>
          </mxGeometry>
        </mxCell>
        <mxCell id="o9TjNFRMvBUlwkUK1iah-81" value="" style="curved=1;startArrow=none;endArrow=block;exitX=0.31;exitY=1;entryX=0.75;entryY=0;rounded=0;" edge="1" parent="o9TjNFRMvBUlwkUK1iah-1" source="o9TjNFRMvBUlwkUK1iah-39" target="o9TjNFRMvBUlwkUK1iah-15">
          <mxGeometry relative="1" as="geometry">
            <Array as="points">
              <mxPoint x="1098" y="2376" />
            </Array>
          </mxGeometry>
        </mxCell>
        <mxCell id="o9TjNFRMvBUlwkUK1iah-82" value="" style="curved=1;startArrow=none;endArrow=block;exitX=0.56;exitY=1;entryX=1;entryY=0.03;rounded=0;" edge="1" parent="o9TjNFRMvBUlwkUK1iah-1" source="o9TjNFRMvBUlwkUK1iah-39" target="o9TjNFRMvBUlwkUK1iah-38">
          <mxGeometry relative="1" as="geometry">
            <Array as="points">
              <mxPoint x="1389" y="2376" />
            </Array>
          </mxGeometry>
        </mxCell>
        <mxCell id="o9TjNFRMvBUlwkUK1iah-83" value="" style="curved=1;startArrow=none;endArrow=block;exitX=0.28;exitY=1;entryX=0.5;entryY=0;rounded=0;" edge="1" parent="o9TjNFRMvBUlwkUK1iah-1" source="o9TjNFRMvBUlwkUK1iah-18" target="o9TjNFRMvBUlwkUK1iah-40">
          <mxGeometry relative="1" as="geometry">
            <Array as="points">
              <mxPoint x="868" y="3002" />
            </Array>
          </mxGeometry>
        </mxCell>
        <mxCell id="o9TjNFRMvBUlwkUK1iah-84" value="" style="curved=1;startArrow=none;endArrow=block;exitX=0.73;exitY=1;entryX=0.5;entryY=0;rounded=0;" edge="1" parent="o9TjNFRMvBUlwkUK1iah-1" source="o9TjNFRMvBUlwkUK1iah-18" target="o9TjNFRMvBUlwkUK1iah-41">
          <mxGeometry relative="1" as="geometry">
            <Array as="points">
              <mxPoint x="1037" y="3002" />
            </Array>
          </mxGeometry>
        </mxCell>
      </root>
    </mxGraphModel>
  </diagram>
</mxfile>
